<svg xmlns="http://www.w3.org/2000/svg" width="1em" height="1em" viewBox="0 0 512 512">
    <defs>
        <linearGradient id="gradient" x1="0%" y1="0%" x2="100%" y2="100%">
            <stop offset="0%" style="stop-color:#0ebbcf;stop-opacity:1"/>
            <stop offset="100%" style="stop-color:#afe1ea;stop-opacity:1"/>
        </linearGradient>
    </defs>
    <path fill="url(#gradient)"
          d="M104 496H72a24 24 0 0 1-24-24V328a24 24 0 0 1 24-24h32a24 24 0 0 1 24 24v144a24 24 0 0 1-24 24m224 0h-32a24 24 0 0 1-24-24V232a24 24 0 0 1 24-24h32a24 24 0 0 1 24 24v240a24 24 0 0 1-24 24m112 0h-32a24 24 0 0 1-24-24V120a24 24 0 0 1 24-24h32a24 24 0 0 1 24 24v352a24 24 0 0 1-24 24m-224 0h-32a24 24 0 0 1-24-24V40a24 24 0 0 1 24-24h32a24 24 0 0 1 24 24v432a24 24 0 0 1-24 24"/>
</svg>